<svg width="18" height="18" viewBox="0 0 18 18" fill="none" xmlns="http://www.w3.org/2000/svg">
<path d="M9.01853 18H1.9315C0.759682 17.9995 0 17.2382 0 16.0631V1.92637C0 0.76584 0.764189 0 1.92349 0H16.0955C17.2293 0 17.9985 0.770348 17.9985 1.90834C17.9985 6.63929 17.9985 11.3702 17.9985 16.1012C17.9985 17.2266 17.2278 17.9985 16.1046 17.999C13.7432 18.0003 11.3812 18.0007 9.01853 18ZM12.6116 7.70148C12.8209 8.2254 13.0122 8.70674 13.206 9.18658C13.3408 9.52066 13.518 9.63737 13.8796 9.63987C14.6231 9.63987 15.3667 9.63987 16.1106 9.63987C16.1791 9.64227 16.2477 9.63656 16.3149 9.62284C16.4574 9.58863 16.5824 9.50332 16.6662 9.38308C16.75 9.26283 16.7867 9.11602 16.7695 8.97046C16.7523 8.82491 16.6822 8.69074 16.5727 8.59338C16.4632 8.49603 16.3217 8.44226 16.1752 8.44228C15.5742 8.43676 14.9733 8.43576 14.3754 8.44228C14.2381 8.44228 14.1826 8.39519 14.1345 8.27348C13.8215 7.4856 13.501 6.70023 13.1905 5.91034C13.0818 5.63386 12.9036 5.45955 12.5981 5.44703C12.3272 5.43752 12.1194 5.61182 12.0012 5.92737L9.5148 12.551C9.45421 12.7122 9.39061 12.8725 9.32851 13.0333C9.24839 12.6071 9.19831 12.1873 9.14923 11.7671C8.99466 10.4338 8.83992 9.09926 8.68501 7.76359C8.5271 6.41189 8.36902 5.05952 8.21077 3.70649C8.15519 3.22915 8.1021 2.75131 8.0375 2.27498C8.00245 2.01402 7.8427 1.84823 7.5868 1.78012C7.29284 1.70198 7.03144 1.84723 6.87019 2.18082C5.88766 4.2077 4.90563 6.23558 3.9241 8.26446C3.86251 8.39269 3.79641 8.44728 3.64517 8.44428C3.05826 8.43326 2.47034 8.43827 1.88293 8.44027C1.49783 8.44027 1.23192 8.6867 1.22741 9.03531C1.2239 9.39294 1.49182 9.63636 1.88894 9.63937C2.62008 9.63937 3.35121 9.63085 4.08235 9.64388C4.4329 9.65039 4.65224 9.50513 4.80297 9.19309C5.52209 7.69747 6.25122 6.20636 6.97735 4.71325C7.0049 4.65715 7.03544 4.60255 7.08402 4.50989C7.10255 4.59454 7.11357 4.6301 7.11757 4.66667C7.30653 6.27916 7.49482 7.89181 7.68245 9.50463C7.92216 11.5642 8.16186 13.6238 8.40157 15.6834C8.43262 15.9504 8.57534 16.1342 8.83624 16.2139C9.08663 16.2885 9.29496 16.2104 9.45821 16.02C9.51876 15.9408 9.56549 15.8519 9.59643 15.7571C10.3977 13.62 11.1989 11.4816 12.0002 9.34185C12.197 8.80842 12.3958 8.27799 12.6116 7.70148Z" fill="#999999"/>
</svg>
